Coordinates
version=1
nRows=27
nColumns=38
inDegrees=no

Units are S.I. units (second, meters, Newtons, ...)
If the header above contains a line with 'inDegrees', this indicates whether rotational values are in degrees (yes) or radians (no).

endheader
time	pelvis_tilt	pelvis_list	pelvis_rotation	pelvis_tx	pelvis_ty	pelvis_tz	hip_flexion_r	hip_adduction_r	hip_rotation_r	knee_angle_r	ankle_angle_r	subtalar_angle_r	mtp_angle_r	hip_flexion_l	hip_adduction_l	hip_rotation_l	knee_angle_l	ankle_angle_l	subtalar_angle_l	mtp_angle_l	lumbar_extension	lumbar_bending	lumbar_rotation	arm_flex_r	arm_add_r	arm_rot_r	elbow_flex_r	pro_sup_r	wrist_flex_r	wrist_dev_r	arm_flex_l	arm_add_l	arm_rot_l	elbow_flex_l	pro_sup_l	wrist_flex_l	wrist_dev_l
0.83	-2.82572	1.45807	-1.8416	0.670759	0.0963672	0.94281	0.288769	-0.238294	-0.145629	1.18149	0.0550369	0	0	-0.0176538	0.0689765	-0.25248	0.275831	0.134996	0	0	-0.186543	-0.0574756	-0.12799	-0.0454759	-0.296418	0.38435	0.666659	1.32913	0	0	-0.059597	-0.37649	0.322877	0.791542	0.928422	0	0
0.84	-2.8711	1.45855	-1.78996	0.669579	0.104522	0.943919	0.299054	-0.233725	-0.157685	1.15253	0.0638502	0	0	-0.0339535	0.0653617	-0.244524	0.264536	0.136133	0	0	-0.1882	-0.050666	-0.135464	-0.0466457	-0.296182	0.377552	0.67551	1.3263	0	0	-0.0561067	-0.379967	0.309785	0.799819	0.926974	0	0
0.85	-2.91247	1.45845	-1.74284	0.66848	0.112668	0.944903	0.307708	-0.230007	-0.170988	1.11997	0.0720102	0	0	-0.0504878	0.0621031	-0.236633	0.253167	0.137242	0	0	-0.190097	-0.0444791	-0.1423	-0.047475	-0.295901	0.371182	0.683797	1.32333	0	0	-0.0524723	-0.38353	0.297818	0.8079	0.925401	0	0
0.86	-2.94905	1.45785	-1.70096	0.66745	0.120826	0.945736	0.314873	-0.227133	-0.185542	1.08417	0.0773636	0	0	-0.0673999	0.0593073	-0.228489	0.241276	0.138138	0	0	-0.19231	-0.0389158	-0.148671	-0.0477914	-0.295653	0.365678	0.691429	1.32021	0	0	-0.048725	-0.387321	0.287167	0.816027	0.923551	0	0
0.87	-2.97806	1.45692	-1.66721	0.666509	0.128906	0.946404	0.320914	-0.225455	-0.201477	1.04573	0.0813795	0	0	-0.0846585	0.0573208	-0.22027	0.228794	0.138863	0	0	-0.19471	-0.0342818	-0.154395	-0.0477308	-0.295528	0.361357	0.698553	1.31654	0	0	-0.0446451	-0.391396	0.278222	0.823838	0.921302	0	0
0.88	-2.99649	1.45595	-1.64428	0.665643	0.137027	0.946842	0.326247	-0.226114	-0.220393	1.00571	0.0859001	0	0	-0.101992	0.0564784	-0.211769	0.215912	0.139402	0	0	-0.196903	-0.0309489	-0.159763	-0.047477	-0.295607	0.358837	0.705286	1.31195	0	0	-0.0404129	-0.395897	0.271283	0.830981	0.918685	0	0
0.89	-2.99352	1.45474	-1.64181	0.66485	0.145468	0.946934	0.33075	-0.23816	-0.257557	0.968416	0.0908337	0	0	-0.119615	0.0577747	-0.203553	0.203362	0.140679	0	0	-0.198271	-0.0305103	-0.165846	-0.0484683	-0.29514	0.356705	0.712057	1.30616	0	0	-0.0368812	-0.401399	0.26598	0.838742	0.915793	0	0
0.9	-3.00846	1.45481	-1.62336	0.664305	0.153449	0.946966	0.33413	-0.240121	-0.28406	0.923054	0.0942591	0	0	-0.133615	0.0560904	-0.20013	0.195105	0.144149	0	0	-0.199532	-0.0276894	-0.169686	-0.0475607	-0.294984	0.356276	0.717	1.2989	0	0	-0.0315504	-0.405891	0.262299	0.8441	0.912769	0	0
0.91	-3.01633	1.45306	-1.61235	0.663424	0.161159	0.947083	0.334388	-0.239857	-0.306709	0.874504	0.100231	0	0	-0.153913	0.0569399	-0.186739	0.177518	0.141555	0	0	-0.203402	-0.0253027	-0.172555	-0.0473448	-0.291147	0.336345	0.719115	1.34743	0	0	-0.0256017	-0.408205	0.25465	0.847656	0.932076	0	0
0.92	-3.02369	1.45355	-1.6022	0.663188	0.16931	0.946689	0.337236	-0.237911	-0.327825	0.824915	0.106168	0	0	-0.168357	0.0563566	-0.180821	0.166402	0.144275	0	0	-0.204752	-0.0234926	-0.175094	-0.0465421	-0.289743	0.331874	0.722974	1.35107	0	0	-0.0192463	-0.412363	0.251775	0.851959	0.934992	0	0
0.93	-3.02526	1.45484	-1.59845	0.662901	0.177131	0.946055	0.340523	-0.235899	-0.349499	0.774108	0.114339	0	0	-0.181322	0.0562481	-0.175141	0.156672	0.147367	0	0	-0.205504	-0.0223328	-0.176739	-0.0456629	-0.288493	0.328031	0.726302	1.35525	0	0	-0.0126662	-0.416191	0.249576	0.855778	0.938483	0	0
0.94	-3.02248	1.45684	-1.59955	0.662771	0.184898	0.945195	0.344293	-0.233081	-0.370823	0.722073	0.122751	0	0	-0.192899	0.0563727	-0.170708	0.148253	0.151071	0	0	-0.205627	-0.0218318	-0.17752	-0.0448226	-0.28704	0.324445	0.728991	1.35951	0	0	-0.00590278	-0.41985	0.248006	0.859169	0.942731	0	0
0.95	-3.01688	1.45968	-1.60455	0.662779	0.192269	0.94415	0.348837	-0.229167	-0.391403	0.66906	0.130812	0	0	-0.202939	0.0566934	-0.167602	0.141525	0.155503	0	0	-0.205185	-0.0217071	-0.177218	-0.0436328	-0.285603	0.320977	0.730914	1.36356	0	0	0.000803058	-0.423197	0.247192	0.862165	0.947757	0	0
0.96	-2.98719	1.46284	-1.62787	0.663406	0.200283	0.942872	0.355535	-0.219077	-0.403055	0.617036	0.131188	0	0	-0.213284	0.0518616	-0.174758	0.132088	0.16553	0	0	-0.204545	-0.0255017	-0.179772	-0.044236	-0.281946	0.317401	0.732111	1.36781	0	0	0.0094182	-0.428016	0.247205	0.864825	0.952904	0	0
0.97	-2.9782	1.46692	-1.63816	0.663808	0.20789	0.941436	0.361645	-0.21381	-0.419964	0.563745	0.136527	0	0	-0.221689	0.0523703	-0.173586	0.125253	0.170421	0	0	-0.203285	-0.0258452	-0.177053	-0.0428162	-0.279981	0.314002	0.732594	1.37134	0	0	0.0170117	-0.43062	0.247498	0.866556	0.957886	0	0
0.98	-2.96635	1.47139	-1.65216	0.664359	0.215487	0.93984	0.367919	-0.207046	-0.433949	0.510273	0.14148	0	0	-0.229683	0.05316	-0.173385	0.11847	0.175625	0	0	-0.201763	-0.0264037	-0.173356	-0.0412732	-0.278092	0.31069	0.732655	1.37326	0	0	0.0246932	-0.432632	0.247946	0.867445	0.96242	0	0
0.99	-2.94734	1.47644	-1.67397	0.665042	0.223082	0.93805	0.375082	-0.199603	-0.444842	0.457924	0.146356	0	0	-0.236677	0.0544994	-0.174235	0.112462	0.181243	0	0	-0.199654	-0.0274915	-0.169222	-0.0393815	-0.27651	0.308972	0.732331	1.37382	0	0	0.0319112	-0.434312	0.248721	0.867588	0.966154	0	0
1	-2.92654	1.48171	-1.6983	0.665879	0.230685	0.936136	0.382346	-0.190561	-0.451093	0.40645	0.150863	0	0	-0.243527	0.0558662	-0.175219	0.106253	0.186897	0	0	-0.197388	-0.0284924	-0.164472	-0.0369891	-0.275106	0.308434	0.731187	1.37258	0	0	0.0389583	-0.435509	0.249911	0.866559	0.970292	0	0
1.01	-2.90348	1.48706	-1.72543	0.666872	0.238249	0.934129	0.389363	-0.18	-0.452135	0.35617	0.154755	0	0	-0.249884	0.0571109	-0.176734	0.100809	0.192736	0	0	-0.195263	-0.0294628	-0.159077	-0.034402	-0.27353	0.308399	0.729396	1.36701	0	0	0.0459729	-0.436329	0.251272	0.865599	0.971346	0	0
1.02	-2.87752	1.49245	-1.75553	0.667936	0.245854	0.932054	0.395568	-0.168339	-0.44668	0.306985	0.156822	0	0	-0.255785	0.0581137	-0.178564	0.0962778	0.198983	0	0	-0.193218	-0.0302166	-0.153478	-0.0318038	-0.269715	0.299086	0.724894	1.39187	0	0	0.052868	-0.435414	0.249342	0.861902	0.988616	0	0
1.03	-2.84707	1.49739	-1.78979	0.669013	0.253554	0.929942	0.400296	-0.156455	-0.435101	0.259899	0.156617	0	0	-0.261554	0.0588866	-0.181025	0.0931403	0.205944	0	0	-0.191358	-0.0309238	-0.148502	-0.0284375	-0.268103	0.299797	0.720983	1.38883	0	0	0.059218	-0.435416	0.251538	0.858851	0.987654	0	0
1.04	-2.8153	1.50152	-1.82435	0.670031	0.261414	0.927866	0.402763	-0.145151	-0.419353	0.215859	0.153098	0	0	-0.26752	0.0591153	-0.183589	0.0916164	0.21351	0	0	-0.190208	-0.0312172	-0.144677	-0.0248361	-0.266397	0.299963	0.716046	1.39186	0	0	0.0649177	-0.43444	0.252341	0.85421	0.994045	0	0
1.05	-2.78849	1.50422	-1.85227	0.670887	0.269547	0.925913	0.403018	-0.135672	-0.404272	0.178558	0.147215	0	0	-0.274577	0.05847	-0.185871	0.0916593	0.221947	0	0	-0.190344	-0.0308317	-0.142651	-0.0214229	-0.264708	0.300099	0.710727	1.39454	0	0	0.0696556	-0.432889	0.252486	0.849507	0.999914	0	0
1.06	-2.76772	1.50567	-1.87244	0.671517	0.278048	0.924059	0.402884	-0.129038	-0.393203	0.152329	0.141918	0	0	-0.282686	0.0570605	-0.187666	0.0931798	0.230853	0	0	-0.19125	-0.0297253	-0.142449	-0.0185972	-0.263449	0.300569	0.705451	1.39668	0	0	0.0729945	-0.430892	0.252692	0.845101	1.00377	0	0
1.07	-2.74638	1.5059	-1.89134	0.671871	0.286875	0.922273	0.405336	-0.127264	-0.392458	0.143819	0.140473	0	0	-0.291807	0.0556283	-0.187581	0.0955293	0.238778	0	0	-0.192862	-0.0283509	-0.144177	-0.0165575	-0.262657	0.300947	0.700858	1.39763	0	0	0.074839	-0.428794	0.253795	0.841041	1.00522	0	0
1.08	-2.738	1.50472	-1.89586	0.672049	0.29604	0.920654	0.407113	-0.127486	-0.396231	0.146178	0.13826	0	0	-0.302029	0.0531836	-0.18783	0.0997758	0.247016	0	0	-0.195646	-0.026039	-0.147473	-0.0148459	-0.262283	0.301508	0.696084	1.39874	0	0	0.0753699	-0.426342	0.255392	0.836466	1.00698	0	0
1.09	-2.72741	1.50246	-1.90111	0.671998	0.305481	0.91913	0.410092	-0.131459	-0.406091	0.161609	0.138264	0	0	-0.31266	0.0507482	-0.187543	0.105656	0.255078	0	0	-0.198981	-0.0236042	-0.152581	-0.0135412	-0.26248	0.30274	0.691624	1.39965	0	0	0.074432	-0.423581	0.256999	0.832333	1.00827	0	0
